<svg xmlns="http://www.w3.org/2000/svg" width="160" height="55" viewBox="0 0 150 45">
  <!-- More Advanced Shadow Effect -->
  <defs>
    <filter id="advancedShadow" x="-20%" y="-20%" width="140%" height="140%">
      <feGaussianBlur in="SourceAlpha" stdDeviation="4" result="shadow"/>
      <feOffset dx="0" dy="4" result="shadowOffset"/>
      <feComponentTransfer>
        <feFuncA type="linear" slope="0.5"/>
      </feComponentTransfer>
      <feMerge>
        <feMergeNode/>
        <feMergeNode in="SourceGraphic"/>
      </feMerge>
    </filter>
    
    <!-- Gradient Definitions -->
    <linearGradient id="buttonGradient" x1="0%" y1="0%" x2="0%" y2="100%">
      <stop offset="0%" style="stop-color:#2C2C2C;stop-opacity:1"/>
      <stop offset="50%" style="stop-color:#1E1E1E;stop-opacity:1"/>
      <stop offset="100%" style="stop-color:#0A0A0A;stop-opacity:1"/>
    </linearGradient>
    
    <!-- Highlight Gradient -->
    <linearGradient id="highlightGradient" x1="0%" y1="0%" x2="0%" y2="100%">
      <stop offset="0%" style="stop-color:#505050;stop-opacity:0.7"/>
      <stop offset="100%" style="stop-color:#2C2C2C;stop-opacity:0.4"/>
    </linearGradient>
  </defs>
  
  <!-- Main Button Background with Enhanced Shadow -->
  <rect width="150" height="45" rx="10" ry="10" fill="url(#buttonGradient)" filter="url(#advancedShadow)"/>
  
  <!-- Top Highlight with Soft Gradient -->
  <rect width="150" height="22" rx="10" ry="10" fill="url(#highlightGradient)" opacity="0.8"/>
  
  <!-- Subtle Inner Shadow -->
  <rect width="146" height="41" rx="8" ry="8" x="2" y="2" fill="none" stroke="#0A0A0A" stroke-width="1" opacity="0.5"/>
  
  <!-- Download Icon with Improved Design -->
  <g transform="translate(20,12)">
    <path d="M10 5 L15 10 L20 5" fill="none" stroke="white" stroke-width="2.5" stroke-linecap="round"/>
    <line x1="15" y1="0" x2="15" y2="10" stroke="white" stroke-width="2.5" stroke-linecap="round"/>
    <circle cx="15" cy="13" r="1.5" fill="white"/>
  </g>
  
  <!-- Text with Enhanced Typography -->
  <text x="50" y="28" font-family="Arial, sans-serif" font-size="15" fill="white" font-weight="bold" letter-spacing="0.5">
    Download
  </text>
  
  <!-- Subtle Metallic Reflection -->
  <path d="M5 5 L145 5 Q150 5 150 10 L150 15 Q145 10 140 10 L10 10 Q5 10 5 15 Z" 
        fill="rgba(255,255,255,0.1)" opacity="0.5"/>
</svg>